<svg xmlns="http://www.w3.org/2000/svg" width="150.216" height="138.949" viewBox="0 0 150.216 138.949">
  <g id="Group_16" data-name="Group 16" transform="translate(-2518 -5608)">
    <path id="Path_169" data-name="Path 169" d="M752.362,416.946H698.321l-28.408,45.976a54.047,54.047,0,0,0,82.449-45.976Z" transform="translate(1886.772 5265.017)" fill="#f2f2f2"/>
    <path id="Path_181" data-name="Path 181" d="M690.152,449.954a54.167,54.167,0,0,1-28.543-8.1l-.218-.135.135-.218,28.483-46.1h54.44v.256A54.359,54.359,0,0,1,690.152,449.954Zm-28.055-8.4a53.791,53.791,0,0,0,81.839-45.636H690.295Z" transform="translate(1893.11 5281.04)" fill="#3f3d56"/>
    <path id="Path_182" data-name="Path 182" d="M519,308.779a54,54,0,0,0,25.633,45.977l28.408-45.977-46.928-26.816A53.791,53.791,0,0,0,519,308.779Z" transform="translate(1999 5365.398)" fill="#f2f2f2"/>
    <path id="Path_183" data-name="Path 183" d="M560.923,346.948l-.218-.135A54.323,54.323,0,0,1,542.1,273.676l.127-.222,47.381,27.075Zm-18.507-72.8a53.811,53.811,0,0,0,18.341,72.089l28.134-45.532Z" transform="translate(1987.144 5371.727)" fill="#3f3d56"/>
    <path id="Path_184" data-name="Path 184" d="M800.871,148.526,789.221,201.3h54.041A54.058,54.058,0,0,0,800.871,148.526Z" transform="translate(1798.048 5464.63)" fill="#ffb900"/>
    <path id="Path_185" data-name="Path 185" d="M826.96,212.287H772.344l11.774-53.34.25.055a54.314,54.314,0,0,1,42.592,53.028Zm-53.978-.513h53.465a54.092,54.092,0,0,0-41.939-52.216Z" transform="translate(1810.599 5456.88)" fill="#3f3d56"/>
    <path id="Path_186" data-name="Path 186" d="M607.969,128.412a54.02,54.02,0,0,0-46.928,27.225l46.928,26.816,11.65-52.778a54.227,54.227,0,0,0-11.65-1.263Z" transform="translate(1967.735 5479.588)" fill="#f2f2f2"/>
    <path id="Path_187" data-name="Path 187" d="M616.063,199.067l-47.453-27.116.128-.223a54.361,54.361,0,0,1,58.855-26.085l.251.055ZM569.31,171.76l46.4,26.516,11.52-52.187A53.849,53.849,0,0,0,569.31,171.76Z" transform="translate(1962.107 5467.721)" fill="#3f3d56"/>
    <path id="Path_188" data-name="Path 188" d="M766.67,81.012l-.373-.352,28.127-29.849h22.895v.513H794.645Z" transform="translate(1839.448 5570.214)" fill="#3f3d56"/>
    <rect id="Rectangle_99" data-name="Rectangle 99" width="27.021" height="0.916" transform="translate(2641.195 5624.945)" fill="#ffb900"/>
    <rect id="Rectangle_100" data-name="Rectangle 100" width="27.021" height="0.916" transform="translate(2641.195 5628.838)" fill="#ffb900"/>
    <rect id="Rectangle_101" data-name="Rectangle 101" width="27.021" height="0.916" transform="translate(2641.195 5632.731)" fill="#ffb900"/>
    <rect id="Rectangle_102" data-name="Rectangle 102" width="27.021" height="0.916" transform="translate(2631.967 5738.248)" fill="#ffb900"/>
    <rect id="Rectangle_103" data-name="Rectangle 103" width="27.021" height="0.916" transform="translate(2631.967 5742.141)" fill="#ffb900"/>
    <rect id="Rectangle_104" data-name="Rectangle 104" width="27.021" height="0.916" transform="translate(2631.967 5746.033)" fill="#ffb900"/>
    <path id="Path_189" data-name="Path 189" d="M789.324,400.515h-27.05l-.076-.111-21.02-30.5.422-.291L762.543,400h26.781Z" transform="translate(1858.128 5333.138)" fill="#3f3d56"/>
  </g>
</svg>
