<svg id="Fire" xmlns="http://www.w3.org/2000/svg" width="100" height="110.68" viewBox="0 0 100 110.68">
  <path id="Path_117" data-name="Path 117" d="M544.364,740.314l-14.68,10.211a6.826,6.826,0,0,0-1.266.918,5.557,5.557,0,0,0-.285,7.854q.137.147.285.285a6.2,6.2,0,0,0,8.519,0,6.488,6.488,0,0,0,.844-.988l11.089-14.481a2.783,2.783,0,0,0-.422-3.6A3.166,3.166,0,0,0,544.364,740.314Z" transform="translate(-512.557 -659.403)" fill="#3f3d56"/>
  <g id="Group_9" data-name="Group 9">
    <path id="Path_113" data-name="Path 113" d="M584.162,743.125a3.883,3.883,0,0,0-3.915-3.47,3.932,3.932,0,0,0-3.841,2.978h0l-3.841,18.654a7.546,7.546,0,0,0-.2,1.663c0,4.207,3.521,7.13,7.879,7.13s7.881-2.923,7.881-7.13a7.631,7.631,0,0,0-.272-1.995Z" transform="translate(-529.824 -659.4)" fill="#3f3d56"/>
    <path id="Path_114" data-name="Path 114" d="M627.886,751.468a8.822,8.822,0,0,0-1.256-.918l-14.675-10.256a3.138,3.138,0,0,0-4.063.211,2.856,2.856,0,0,0-.422,3.63L618.551,758.7a7.707,7.707,0,0,0,.844.99c1.921,2.147,6.18,2.265,8.521,0C630.225,757.387,630.2,753.284,627.886,751.468Z" transform="translate(-542.44 -659.4)" fill="#3f3d56"/>
    <path id="Path_115" data-name="Path 115" d="M650.057,733.793H635.194a1.808,1.808,0,0,0-1.874,1.722,1.965,1.965,0,0,0,1.461,1.933l14.021,4.337c2.037.475,4.781-1.34,4.781-3.607C653.582,735.3,651.978,733.793,650.057,733.793Z" transform="translate(-553.582 -656.918)" fill="#3f3d56"/>
    <path id="Path_116" data-name="Path 116" d="M524.769,735.5a1.846,1.846,0,0,0-1.995-1.722H507.911c-1.872,0-3.451,2.022-3.451,4.289a4.145,4.145,0,0,0,4.707,3.713l14.232-4.337a1.786,1.786,0,0,0,1.37-1.942Z" transform="translate(-503.163 -656.908)" fill="#3f3d56"/>
    <path id="Path_119" data-name="Path 119" d="M625.666,706.6c-2.341-.963-6.6-.912-8.521,0a6.911,6.911,0,0,0-.844.421l-11.081,6.189c-.753.49-.576,1.139.422,1.543a6.63,6.63,0,0,0,4.063.09l14.676-4.359a12.487,12.487,0,0,0,1.256-.39C627.948,709.321,627.975,707.577,625.666,706.6Z" transform="translate(-541.487 -645.105)" fill="#3f3d56"/>
    <path id="Path_120" data-name="Path 120" d="M651.332,719.991c0-.963-2.744-1.735-4.781-1.533L632.53,720.3c-.838.117-1.461.39-1.461.822s.914.732,1.874.732h14.863C649.728,721.854,651.332,721.216,651.332,719.991Z" transform="translate(-552.629 -650.411)" fill="#3f3d56"/>
    <path id="Path_121" data-name="Path 121" d="M521.149,720.3l-14.232-1.843c-2.043-.2-4.707.615-4.707,1.578s1.579,1.823,3.451,1.823h14.863c1.034,0,1.995-.283,1.995-.732S522.076,720.419,521.149,720.3Z" transform="translate(-502.21 -650.412)" fill="#3f3d56"/>
    <path id="Path_122" data-name="Path 122" d="M546.2,714.772c1.038-.41,1.161-1.03.422-1.53l-11.089-6.154a5.8,5.8,0,0,0-.844-.42,12.964,12.964,0,0,0-8.519,0q-.147.058-.285.121c-2.09.955-1.963,2.45.285,3.338a9.735,9.735,0,0,0,1.266.39l14.68,4.34A6.708,6.708,0,0,0,546.2,714.772Z" transform="translate(-511.604 -645.127)" fill="#3f3d56"/>
    <path id="Path_123" data-name="Path 123" d="M591.665,660.132c0,22.926-12.777,23.35-28.539,23.35s-41.639-4.535-28.539-23.35c13.817-19.844,37.52-57.668,28.539-59.672C563.127,600.46,591.665,637.206,591.665,660.132Z" transform="translate(-512.448 -600.46)" fill="#f9a825"/>
  </g>
  <path id="Path_124" data-name="Path 124" d="M586.515,711.076c0,9.075-5.058,9.243-11.3,9.243s-16.482-1.8-11.3-9.243c5.469-7.855,14.852-22.827,11.3-23.62C575.219,687.456,586.515,702,586.515,711.076Z" transform="translate(-525.735 -637.297)" fill="#ff6584" opacity="0.5"/>
</svg>
