<svg id="undraw_Presentation_62e1" xmlns="http://www.w3.org/2000/svg" xmlns:xlink="http://www.w3.org/1999/xlink" width="595.641" height="471.783" viewBox="0 0 595.641 471.783">
  <defs>
    <linearGradient id="linear-gradient" x1="0.5" y1="1" x2="0.5" gradientUnits="objectBoundingBox">
      <stop offset="0" stop-color="gray" stop-opacity="0.251"/>
      <stop offset="0.535" stop-color="gray" stop-opacity="0.122"/>
      <stop offset="1" stop-color="gray" stop-opacity="0.102"/>
    </linearGradient>
  </defs>
  <rect id="Rectangle_39" data-name="Rectangle 39" width="442.861" height="258.052" fill="url(#linear-gradient)"/>
  <rect id="Rectangle_40" data-name="Rectangle 40" width="431.79" height="13.201" transform="translate(5.962 4.258)" fill="#f5f5f5"/>
  <rect id="Rectangle_41" data-name="Rectangle 41" width="431.79" height="233.78" transform="translate(5.962 17.459)" fill="#fff"/>
  <circle id="Ellipse_242" data-name="Ellipse 242" cx="3.747" cy="3.747" r="3.747" transform="translate(12.094 6.898)" fill="url(#linear-gradient)"/>
  <circle id="Ellipse_243" data-name="Ellipse 243" cx="3.747" cy="3.747" r="3.747" transform="translate(20.61 6.898)" fill="url(#linear-gradient)"/>
  <circle id="Ellipse_244" data-name="Ellipse 244" cx="3.747" cy="3.747" r="3.747" transform="translate(29.127 6.898)" fill="url(#linear-gradient)"/>
  <circle id="Ellipse_245" data-name="Ellipse 245" cx="3.066" cy="3.066" r="3.066" transform="translate(12.775 7.58)" fill="#ff5252"/>
  <circle id="Ellipse_246" data-name="Ellipse 246" cx="3.066" cy="3.066" r="3.066" transform="translate(21.206 7.58)" fill="#ff0"/>
  <circle id="Ellipse_247" data-name="Ellipse 247" cx="3.066" cy="3.066" r="3.066" transform="translate(29.638 7.58)" fill="#69f0ae"/>
  <rect id="Rectangle_42" data-name="Rectangle 42" width="254.063" height="125.708" transform="translate(99.061 35.871)" fill="url(#linear-gradient)"/>
  <rect id="Rectangle_43" data-name="Rectangle 43" width="248.77" height="119.092" transform="translate(101.708 38.517)" fill="#ffb900"/>
  <line id="Line_2" data-name="Line 2" y2="86.011" transform="translate(114.94 54.396)" stroke-dasharray="0 4" stroke="#fff" stroke-linecap="round" stroke-linejoin="round" stroke-width="1" fill="none"/>
  <line id="Line_3" data-name="Line 3" x2="219.658" transform="translate(114.278 146.362)" fill="none" stroke="#fff" stroke-linecap="round" stroke-linejoin="round" stroke-width="1"/>
  <line id="Line_4" data-name="Line 4" x2="170.698" transform="translate(139.42 59.028)" opacity="0.3" stroke="#fff" stroke-linecap="round" stroke-linejoin="round" stroke-width="1" fill="none"/>
  <line id="Line_5" data-name="Line 5" x2="170.698" transform="translate(139.42 78.876)" opacity="0.3" stroke="#fff" stroke-linecap="round" stroke-linejoin="round" stroke-width="1" fill="none"/>
  <line id="Line_6" data-name="Line 6" x2="170.698" transform="translate(139.42 98.725)" opacity="0.3" stroke="#fff" stroke-linecap="round" stroke-linejoin="round" stroke-width="1" fill="none"/>
  <line id="Line_7" data-name="Line 7" x2="170.698" transform="translate(139.42 118.574)" opacity="0.3" stroke="#fff" stroke-linecap="round" stroke-linejoin="round" stroke-width="1" fill="none"/>
  <path id="Path_96" data-name="Path 96" d="M381.872,286.335V238.7s-3.97-20.51,36.389-19.849c36.7-5.208,36.7-20.359,36.7-20.359s33.757-3.672,35.469,32.245a19.563,19.563,0,0,0,8.1,15.064c13.908,9.808,25.986-9.736,31.539-26.95v67.485Z" transform="translate(-231.204 -139.973)" fill="#fff" opacity="0.2"/>
  <circle id="Ellipse_248" data-name="Ellipse 248" cx="5.293" cy="5.293" r="5.293" transform="translate(178.456 72.922)" fill="#ffb900"/>
  <circle id="Ellipse_249" data-name="Ellipse 249" cx="5.293" cy="5.293" r="5.293" transform="translate(178.456 72.922)" fill="#fff" opacity="0.5"/>
  <circle id="Ellipse_250" data-name="Ellipse 250" cx="6.616" cy="6.616" r="6.616" transform="translate(144.051 92.77)" fill="url(#linear-gradient)"/>
  <circle id="Ellipse_251" data-name="Ellipse 251" cx="6.616" cy="6.616" r="6.616" transform="translate(177.132 71.598)" fill="url(#linear-gradient)"/>
  <circle id="Ellipse_252" data-name="Ellipse 252" cx="6.616" cy="6.616" r="6.616" transform="translate(217.364 52.915)" fill="url(#linear-gradient)"/>
  <circle id="Ellipse_253" data-name="Ellipse 253" cx="6.616" cy="6.616" r="6.616" transform="translate(253.881 92.77)" fill="url(#linear-gradient)"/>
  <circle id="Ellipse_254" data-name="Ellipse 254" cx="6.616" cy="6.616" r="6.616" transform="translate(292.255 74.245)" fill="url(#linear-gradient)"/>
  <circle id="Ellipse_255" data-name="Ellipse 255" cx="5.293" cy="5.293" r="5.293" transform="translate(145.375 94.094)" fill="#ffb900"/>
  <circle id="Ellipse_256" data-name="Ellipse 256" cx="5.293" cy="5.293" r="5.293" transform="translate(145.375 94.094)" opacity="0.2"/>
  <circle id="Ellipse_257" data-name="Ellipse 257" cx="5.293" cy="5.293" r="5.293" transform="translate(218.687 54.238)" fill="#ffb900"/>
  <circle id="Ellipse_258" data-name="Ellipse 258" cx="5.293" cy="5.293" r="5.293" transform="translate(218.687 54.238)" opacity="0.2"/>
  <circle id="Ellipse_259" data-name="Ellipse 259" cx="5.293" cy="5.293" r="5.293" transform="translate(255.204 94.094)" fill="#ffb900"/>
  <circle id="Ellipse_260" data-name="Ellipse 260" cx="5.293" cy="5.293" r="5.293" transform="translate(255.204 94.094)" fill="#fff" opacity="0.5"/>
  <circle id="Ellipse_261" data-name="Ellipse 261" cx="5.293" cy="5.293" r="5.293" transform="translate(293.578 75.568)" fill="#ffb900"/>
  <circle id="Ellipse_262" data-name="Ellipse 262" cx="5.293" cy="5.293" r="5.293" transform="translate(293.578 75.568)" opacity="0.2"/>
  <rect id="Rectangle_44" data-name="Rectangle 44" width="251.732" height="8.158" transform="translate(100.227 176.226)" fill="url(#linear-gradient)"/>
  <rect id="Rectangle_45" data-name="Rectangle 45" width="251.732" height="8.158" transform="translate(100.227 187.88)" fill="url(#linear-gradient)"/>
  <rect id="Rectangle_46" data-name="Rectangle 46" width="251.732" height="8.158" transform="translate(100.227 199.534)" fill="url(#linear-gradient)"/>
  <rect id="Rectangle_47" data-name="Rectangle 47" width="251.732" height="8.158" transform="translate(100.227 211.188)" fill="url(#linear-gradient)"/>
  <rect id="Rectangle_48" data-name="Rectangle 48" width="249.401" height="5.827" transform="translate(101.392 177.391)" fill="#e0e0e0"/>
  <rect id="Rectangle_49" data-name="Rectangle 49" width="249.401" height="5.827" transform="translate(101.392 189.045)" fill="#e0e0e0"/>
  <rect id="Rectangle_50" data-name="Rectangle 50" width="249.401" height="5.827" transform="translate(101.392 200.7)" fill="#e0e0e0"/>
  <rect id="Rectangle_51" data-name="Rectangle 51" width="249.401" height="5.827" transform="translate(101.392 212.354)" fill="#e0e0e0"/>
  <path id="Path_97" data-name="Path 97" d="M898.3,150.62s1.267,4.223-5.912,8.023-9.29,18.157-.844,22.38,10.979,9.712,6.756,13.512S886.481,208.47,896.616,211s11.4,7.6,8.445,9.712,6.756-3.8,6.756-3.8,1.689,10.134,10.557,7.6,33.781-50.671,21.113-57.428S898.3,150.62,898.3,150.62Z" transform="translate(-412.083 -122.841)" fill="#2f2e41"/>
  <path id="Path_98" data-name="Path 98" d="M807.634,601.511l-2.745,25.623,11.9,7.321,10.981-1.83-5.49-31.113Z" transform="translate(-288.694 -215.747)" fill="#9f616a"/>
  <circle id="Ellipse_263" data-name="Ellipse 263" cx="25.623" cy="25.623" r="25.623" transform="translate(484.166 27.044)" fill="#9f616a"/>
  <path id="Path_99" data-name="Path 99" d="M925.444,207.838s-2.288,38.892-5.033,38.892,32.029-1.83,32.029-1.83-14.642-25.623-7.321-33.859S925.444,207.838,925.444,207.838Z" transform="translate(-424.348 -142.818)" fill="#9f616a"/>
  <path id="Path_100" data-name="Path 100" d="M822.648,421.723l-11.9,45.755,9.15,77.784-21.047-1.83L790.62,421.723Z" transform="translate(-283.576 -151.262)" fill="#2f2e41"/>
  <path id="Path_101" data-name="Path 101" d="M822.648,421.723l-11.9,45.755,9.15,77.784-21.047-1.83L790.62,421.723Z" transform="translate(-283.576 -151.262)" opacity="0.2"/>
  <path id="Path_102" data-name="Path 102" d="M934.821,740.27s-.915-5.491-10.066,0S877.17,763.147,897.3,766.808s61.312-4.576,61.312-7.321.915-20.132-2.745-18.3S940.312,754.911,934.821,740.27Z" transform="translate(-414.051 -333.459)" fill="#2f2e41"/>
  <path id="Path_103" data-name="Path 103" d="M977.573,726.528s14.642,22.878,15.557,29.283,14.642-14.642,14.642-14.642L994.96,717.377Z" transform="translate(-444.906 -326.123)" fill="#9f616a"/>
  <path id="Path_104" data-name="Path 104" d="M901.948,533.711l16.472,54.906S947.7,666.4,949.533,665.486s23.793-6.406,24.708-9.151-27.453-76.868-27.453-76.868l-3.66-47.585Z" transform="translate(-417.781 -259.59)" fill="#2f2e41"/>
  <path id="Path_105" data-name="Path 105" d="M1015.695,748.753a12.013,12.013,0,0,0-11.9,7.321c-3.66,8.236-8.236,9.151-9.151,10.066s2.745,20.132,0,21.962-5.491,21.047,3.66,21.047,23.793-10.066,22.878-11.9-.915-14.642,1.83-20.132,7.321-14.642,0-20.132S1015.695,748.753,1015.695,748.753Z" transform="translate(-450.084 -337.366)" fill="#2f2e41"/>
  <path id="Path_106" data-name="Path 106" d="M863.605,391.153l-1.83,16.472s-13.727,13.727-18.3,30.2-42.095,43.925-31.113,47.585,23.793,5.491,55.821,0,82.359,6.406,82.359-23.793c0,0,6.406-8.236,10.981,3.66A239.175,239.175,0,0,0,972.5,489.069s10.981-19.217,7.321-27.453,0-7.321-4.576-16.472-27.453-43.01-36.6-44.84-26.538-25.623-25.623-28.368S863.605,391.153,863.605,391.153Z" transform="translate(-384.93 -202.136)" fill="#ffb900"/>
  <path id="Path_107" data-name="Path 107" d="M935.635,242.222s-37.519,8.236-39.349,13.727c-1.029,3.088-5.823,8.783-9.82,13.174a51.433,51.433,0,0,0-12.916,26.208c-.954,5.838,3.058,11.088,4.892,17.812,5.491,20.132,9.609,15.1,4.118,29.741s27.453,20.132,40.264,13.727,27-44.382,27-48.958,12.354-56.279,2.288-59.939S935.635,242.222,935.635,242.222Z" transform="translate(-407.544 -155.696)" fill="#575a88"/>
  <path id="Path_108" data-name="Path 108" d="M846.878,310.713l-10.981,48.5L799.75,375.227s-27.453-6.406-28.368,3.66c-.6,6.572,31.114,9.151,31.114,9.151l52.618-20.59,11.9-44.84Z" transform="translate(-370.948 -180.262)" fill="#9f616a"/>
  <path id="Path_109" data-name="Path 109" d="M898.882,282.175S876,295.9,881.5,303.222s19.217,19.217,22.878,19.217,6.406-21.962,6.406-28.368S898.882,282.175,898.882,282.175Z" transform="translate(-410.14 -170.026)" fill="#575a88"/>
  <path id="Path_110" data-name="Path 110" d="M937.189,137.546s1.4,4.678-6.549,8.888-10.291,20.115-.936,24.792,12.162,10.759,7.484,14.969-13.1,15.437-1.871,18.243,12.63,8.42,9.356,10.759,7.484-4.21,7.484-4.21,1.871,11.227,11.695,8.42,19.625-53.826,8.674-66.966C962.345,140.223,937.189,137.546,937.189,137.546Z" transform="translate(-425.556 -118.151)" fill="#2f2e41"/>
  <path id="Path_111" data-name="Path 111" d="M940.116,128.251c0-6.853,20.505-1.929,29.3,7.64,6.087,6.626,15.333,16.595,7.585,23.622s13.281,16.239,18.92,19.032,16.775,11.334,6.721,17.063-9.892,11.514-6.108,12.883-8.342-2.036-8.342-2.036,1.225,11.315-8.991,11.261-39.526-56.2-32.524-71.806C953.182,131.4,940.116,128.251,940.116,128.251Z" transform="translate(-431.471 -113.672)" fill="#2f2e41"/>
  <path id="Path_112" data-name="Path 112" d="M930.167,127.644C902.749,125.993,900,146.631,900,146.631c.19,11.944,19.157,6.124,24.425,7.9,6.356-4.572,18.606-13.223,27.367-19.4a41.437,41.437,0,0,0-21.622-7.5Z" transform="translate(-417.082 -114.566)" fill="#2f2e41"/>
</svg>
