<svg xmlns="http://www.w3.org/2000/svg" xmlns:xlink="http://www.w3.org/1999/xlink" width="182.651" height="135.755" viewBox="0 0 182.651 135.755">
  <defs>
    <linearGradient id="linear-gradient" x1="0.5" y1="1" x2="0.5" gradientUnits="objectBoundingBox">
      <stop offset="0" stop-color="gray" stop-opacity="0.251"/>
      <stop offset="0.54" stop-color="gray" stop-opacity="0.122"/>
      <stop offset="1" stop-color="gray" stop-opacity="0.102"/>
    </linearGradient>
  </defs>
  <g id="undraw_in_progress_ql66" transform="translate(0.004 -0.05)">
    <path id="Path_195" data-name="Path 195" d="M201.348,112.186c-11.709-.3-22.862-3.11-33.511-6.182s-21.2-6.483-32.626-8.111c-7.351-1.048-15.759-1.2-21.68,1.733-5.7,2.815-7.543,7.675-8.532,12.2-.745,3.4-1.183,6.969.858,10.148,1.418,2.207,3.933,4.062,5.674,6.177,6.056,7.356,1.775,16.426-4.785,23.609-3.076,3.369-6.649,6.582-9.025,10.17s-3.474,7.695-1.395,11.355c2.059,3.618,6.967,6.349,12.285,8.265,10.8,3.892,23.52,5,35.933,5.636,27.47,1.4,55.084.791,82.626.181,10.193-.224,20.43-.451,30.457-1.628,5.569-.65,11.317-1.683,15.361-4.174,5.131-3.163,6.4-8.518,2.964-12.484-5.768-6.653-21.711-8.306-25.747-15.446-2.218-3.93.06-8.306,3.286-11.952C260.407,133.863,272,127,272.612,118.066c.42-6.137-5.155-12.285-13.774-15.189-9.034-3.043-21.563-2.661-28.224,2.377C223.748,110.45,211.688,112.447,201.348,112.186Z" transform="translate(-95.23 -93.112)" fill="#ffb900" opacity="0.1"/>
    <g id="Group_20" data-name="Group 20" transform="translate(131.18 0.05)" opacity="0.8">
      <path id="Path_196" data-name="Path 196" d="M858.964,107.187s-2.041-.829-8.532,2.149-7.3,2.6-8.983,2.144-2.618-.563-4.42-3.049c0,0-1.267-6.888-2.5-7.961s-6.455.61-6.455.61-6.264,1.44-7.465-6.935c0,0,.847-6.311-.308-8.248,0,0,2.33,1,6.173-.617s6.919,1.748,6.919,1.748a12.611,12.611,0,0,1,.868,4c-.1,1.494.512,2.059,2.352,1.335,0,0,.9-1.281-.375-3.4s-2.186-3.694-1.829-5.339a6.636,6.636,0,0,1,4.666-5.066c3.287-1.143,7.754-1.357,9.9-2.24a7.936,7.936,0,0,0,2.661-1.475s-1.319,1.323,1.789,6.924,1.127,8.035,1.127,8.035-1.654,3.941-8.952,3.618c0,0-7.033.257-3.2,3.239,0,0,2.455-.5,6.128-1.666s6.32,3.649,6.978,7A8.788,8.788,0,0,0,858.964,107.187Z" transform="translate(-820.3 -74.85)" fill="#ffb900"/>
      <path id="Path_197" data-name="Path 197" d="M956.68,98.241l.038-.011c.282,1.069-2.86,5.364-5.547,8.78l-.031-.024C954.929,102.169,956.9,99.062,956.68,98.241Z" transform="translate(-927.468 -94)" fill="#444053"/>
      <path id="Path_198" data-name="Path 198" d="M916.769,146.24l.016.043c-2.146,2.728-4.845,5.985-7.005,8.4-.206.23-.411.47-.606.724l-.063-.049c.2-.248.4-.49.61-.724C911.88,152.216,914.625,148.967,916.769,146.24Z" transform="translate(-893.042 -133.324)" fill="#444053"/>
      <path id="Path_199" data-name="Path 199" d="M886.826,196.22l.043.072c-3.932,4.908-4.192,12.529-4.2,12.6l-.829-.948A27.746,27.746,0,0,1,886.826,196.22Z" transform="translate(-870.706 -174.261)" fill="#444053"/>
      <path id="Path_200" data-name="Path 200" d="M870.313,166.079s-4.635-2.41-8.248-1.545-11.746-3.058-11.746-3.058-3.454-1.4-4.149-3c0,0-2.368-2.506-2.5-3.8s-2.448-4.557-3.946-4.675" transform="translate(-836.206 -136.404)" fill="none" stroke="#444053" stroke-miterlimit="10" stroke-width="1"/>
      <path id="Path_201" data-name="Path 201" d="M995.663,236.267s-2.334-1.572-2.062-3.407" transform="translate(-962.228 -204.272)" fill="none" stroke="#444053" stroke-miterlimit="10" stroke-width="1"/>
      <path id="Path_202" data-name="Path 202" d="M968.675,235.891s-3.34-1.212-3.675-5.971" transform="translate(-938.82 -201.864)" fill="none" stroke="#444053" stroke-miterlimit="10" stroke-width="1"/>
      <path id="Path_203" data-name="Path 203" d="M944.9,236.793a7.469,7.469,0,0,1-2.131-7.273" transform="translate(-920.438 -201.536)" fill="none" stroke="#444053" stroke-miterlimit="10" stroke-width="1"/>
      <path id="Path_204" data-name="Path 204" d="M915.135,229.275s-2.124-4.456-.233-7.355" transform="translate(-897.144 -195.311)" fill="none" stroke="#444053" stroke-miterlimit="10" stroke-width="1"/>
      <path id="Path_205" data-name="Path 205" d="M1000.195,222.63s-2.415.767-1.9,2.037" transform="translate(-966.035 -195.893)" fill="none" stroke="#444053" stroke-miterlimit="10" stroke-width="1"/>
      <path id="Path_206" data-name="Path 206" d="M978.027,198.41s-3.231,1.024-3.307,5.6" transform="translate(-946.782 -176.055)" fill="none" stroke="#444053" stroke-miterlimit="10" stroke-width="1"/>
      <path id="Path_207" data-name="Path 207" d="M955.684,192.58s-2.94,3.629-2.732,6.928" transform="translate(-928.944 -171.28)" fill="none" stroke="#444053" stroke-miterlimit="10" stroke-width="1"/>
      <path id="Path_208" data-name="Path 208" d="M927.951,200.45s-2.922,2.792-2.549,4.342" transform="translate(-906.359 -177.726)" fill="none" stroke="#444053" stroke-miterlimit="10" stroke-width="1"/>
      <path id="Path_209" data-name="Path 209" d="M915.771,193.149s-2.739.49-3.121-.409" transform="translate(-895.942 -171.411)" fill="none" stroke="#444053" stroke-miterlimit="10" stroke-width="1"/>
      <path id="Path_210" data-name="Path 210" d="M910.23,176.72s1.384,1.833,1.741,1.422" transform="translate(-893.959 -158.289)" fill="none" stroke="#444053" stroke-miterlimit="10" stroke-width="1"/>
      <path id="Path_211" data-name="Path 211" d="M947.725,163.16s-6.9.5-8.465-1.579" transform="translate(-917.737 -145.888)" fill="none" stroke="#444053" stroke-miterlimit="10" stroke-width="1"/>
      <path id="Path_212" data-name="Path 212" d="M902.2,125.68s3.24,6.953,5.592,7.839" transform="translate(-887.382 -116.484)" fill="none" stroke="#444053" stroke-miterlimit="10" stroke-width="1"/>
      <path id="Path_213" data-name="Path 213" d="M921,107.37s1.99,6.4,4.454,8.393" transform="translate(-902.781 -101.486)" fill="none" stroke="#444053" stroke-miterlimit="10" stroke-width="1"/>
      <path id="Path_214" data-name="Path 214" d="M964.072,141.017s-5.247,2.253-8.4-.027" transform="translate(-931.178 -129.024)" fill="none" stroke="#444053" stroke-miterlimit="10" stroke-width="0.75"/>
      <path id="Path_215" data-name="Path 215" d="M946.84,99.83s1.2,4.7,2.815,5.838" transform="translate(-923.946 -95.311)" fill="none" stroke="#444053" stroke-miterlimit="10" stroke-width="0.75"/>
      <path id="Path_216" data-name="Path 216" d="M979.383,112s-2.951,1.116-4.053.261" transform="translate(-947.281 -105.279)" fill="none" stroke="#444053" stroke-miterlimit="10" stroke-width="0.75"/>
      <path id="Path_217" data-name="Path 217" d="M891.206,185.21s0,4.1-1.116,4.389" transform="translate(-877.463 -165.243)" fill="none" stroke="#444053" stroke-miterlimit="10" stroke-width="1"/>
      <path id="Path_218" data-name="Path 218" d="M845.84,205.927s4.433.38,6.475-1.907" transform="translate(-841.219 -180.65)" fill="none" stroke="#444053" stroke-miterlimit="10" stroke-width="1"/>
      <path id="Path_219" data-name="Path 219" d="M871.7,158.45s-1.071,4.161-4.029,5.276" transform="translate(-859.1 -143.325)" fill="none" stroke="#444053" stroke-miterlimit="10" stroke-width="1"/>
      <path id="Path_220" data-name="Path 220" d="M831.15,182.726a5.815,5.815,0,0,0,5.835-1.686" transform="translate(-829.187 -161.828)" fill="none" stroke="#444053" stroke-miterlimit="10" stroke-width="1"/>
      <path id="Path_221" data-name="Path 221" d="M860.636,138.7s-.3,3.53-2.216,5.182" transform="translate(-851.523 -127.148)" fill="none" stroke="#444053" stroke-miterlimit="10" stroke-width="1"/>
      <path id="Path_222" data-name="Path 222" d="M831.81,156.87s2.6.016,3.213-.83" transform="translate(-829.728 -141.351)" fill="none" stroke="#444053" stroke-miterlimit="10" stroke-width="1"/>
    </g>
    <ellipse id="Ellipse_294" data-name="Ellipse 294" cx="39.442" cy="2.804" rx="39.442" ry="2.804" transform="translate(8.115 130.196)" fill="#ffb900" opacity="0.1"/>
    <path id="Path_223" data-name="Path 223" d="M253.214,310.662c.543-.975,1.192-1.894,1.717-2.882.479-.9.854-1.864,1.286-2.793.74-1.592,1.652-3.1,2.482-4.646a6,6,0,0,0,.963-3.267A23.1,23.1,0,0,0,258.68,294c-1-4.308-3.414-8.263-4.885-12.43-.376-1.057-.742-2.12-1.212-3.141a33.262,33.262,0,0,0-3.438-5.477,15.47,15.47,0,0,0-1.52-1.889c-.454-.454-.964-.854-1.377-1.346-.85-1.013-1.248-2.471-2.312-3.257-.018.047-.038.092-.058.139-.762-1.945-3.316-3.228-4.8-4.84a28.48,28.48,0,0,1-2.376-3.121l-3.226-4.662a7.835,7.835,0,0,1-1.346-2.585c-.275-1.154-.02-2.385-.291-3.539a4.464,4.464,0,0,0-.986-1.874c.031-.009.063-.022.1-.029.615-.165,1.266-.194,1.876-.34,1.33-.317,2.486-1.167,3.81-1.507a9.292,9.292,0,0,0,2.012-.543,1.672,1.672,0,0,0,.778-1.777c-.429-2.271.769-4.572.566-6.875-.054-.637-.217-1.257-.322-1.889a20.022,20.022,0,0,1-.112-4.454,9.408,9.408,0,0,1,1.475-1.833,12.15,12.15,0,0,0,2.352-2.43,4.739,4.739,0,0,0,.489-2.917,2.814,2.814,0,0,0-.9-1.925,2.274,2.274,0,0,0-2.077-.242c-.1.031-.19.069-.282.109a2.372,2.372,0,0,0-1.871-.109,5.669,5.669,0,0,0-1.831,1.154,4.185,4.185,0,0,0-.854.9,5.364,5.364,0,0,0-.583,1.851,18.09,18.09,0,0,1-1.221,3.581c-.1.2-.362.566-.575.914l-.387-.08c-.168,1.612-1.518,2.8-2.339,4.188-.4.677-.68,1.417-1.04,2.117a20.511,20.511,0,0,1-1.373,2.2q-.733,1.086-1.467,2.151a30.574,30.574,0,0,1-1.99,2.692c-.664-.054-1.328-.1-1.99-.114a16.155,16.155,0,0,0-3.313.295,9.226,9.226,0,0,1-.118-1.16v-.071c0-.094.011-.206.024-.327a6.694,6.694,0,0,0-.32-11.326,4.869,4.869,0,0,0,.069-.615v-.362a.852.852,0,0,0-.013-.181,2.392,2.392,0,0,0-.061-.362c-.014-.058-.031-.116-.051-.181a1.71,1.71,0,0,0-.15-.326l-.013-.018c-.024-.038-.047-.076-.074-.112s-.023-.029-.034-.043a.86.86,0,0,0-.062-.076l-.045-.047c-.02-.022-.04-.043-.062-.063l-.051-.045-.063-.056-.058-.043-.065-.049-.063-.042-.065-.042c-.022-.014-.045-.027-.069-.04l-.067-.038-.072-.036-.067-.033-.08-.034-.065-.029-.087-.033-.062-.024-.094-.033-.056-.018-.1-.033-.049-.014-.112-.031-.043-.013-.118-.029-.034-.009-.13-.029h-.022l-.192-.042q-1.189-.244-2.392-.422a5.389,5.389,0,0,0-1.977-.034,13.691,13.691,0,0,0-2.475,1.178,16.64,16.64,0,0,1-3.137.807,4.764,4.764,0,0,0-2.8,1.525,5.326,5.326,0,0,0-.854,2.312c-1.252,6.81.1,13.8.353,20.718.1,2.694-.022,5.574-1.549,7.78l4.447-.118c.214,0,.429-.013.646-.025s.434-.029.648-.054a4.284,4.284,0,0,0,1.612-.483,2.782,2.782,0,0,0,.628-.488,6.257,6.257,0,0,0,1.221-2.325c.1-.28.2-.564.288-.85.036-.119.071-.239.1-.362l.014-.058.051.024a11.2,11.2,0,0,0,.6,1,21.557,21.557,0,0,0,2.737,3.092,26.46,26.46,0,0,0,6.359,5.126,7.642,7.642,0,0,1,2.336,1.447c.308.331.574.756,1.01.87a5.022,5.022,0,0,1,.829.116c.38.159.519.617.695.993s.572.76.948.588a1.9,1.9,0,0,0,.709,1.887,1.386,1.386,0,0,1,.46.413,1.5,1.5,0,0,1,.094.485,1.916,1.916,0,0,0,.686,1.174c-.353.584-.071,1.422-.061,2.151a8.091,8.091,0,0,1-.338,1.8,13.227,13.227,0,0,0,.145,5.334,5.8,5.8,0,0,0,1.044,2.732c.206.244.452.456.669.693a6.441,6.441,0,0,1,1.022,1.558,12.211,12.211,0,0,1,1.109,3.553,6.47,6.47,0,0,0,.525,1.791c.4.865.034,1.929.389,2.812a8.167,8.167,0,0,1,.554,1.149,5.23,5.23,0,0,1-.266,1.818c-.206,1.437.83,2.77.925,4.217a.333.333,0,0,1-.051.244c-.071.08-.192.078-.288.123-.181.087-.23.331-.288.534s-.221.432-.422.371c-2.973,1.59-6.05,3.059-9.023,4.65l-1.357.724-7.257,3.877a.525.525,0,0,0-.291.474c0,.087.011.181.018.262-.508.127-1,.279-1.344.342-.143.027-.286.054-.427.085a.456.456,0,0,0,.065-.181.362.362,0,0,0-.32-.362,1.159,1.159,0,0,0-.523.069,7.633,7.633,0,0,1-1.266.233,9.034,9.034,0,0,0-1.518.181,1.726,1.726,0,0,0-1.176.9,2.195,2.195,0,0,0-.13.854,13.073,13.073,0,0,0,.394,3.318.282.282,0,0,0,.132.212c.063.025.139,0,.2.029a.272.272,0,0,1,.118.148,7.439,7.439,0,0,1,.456,2.215q.181,1.674.458,3.338a3.705,3.705,0,0,0,.664,1.824,2.979,2.979,0,0,0,1.9.879,13.283,13.283,0,0,0,4.472-.411,1.311,1.311,0,0,0,.754-.342.852.852,0,0,0,.181-.6c-.034-.744-.711-1.266-1.326-1.684l-.84-.581a.362.362,0,0,1-.181-.409l.054-1.1h-.163a3.945,3.945,0,0,1,1.042-2.05c.393-.362.9-.615,1.315-.944a3.256,3.256,0,0,0,1.829.671A14.907,14.907,0,0,1,225,315.383a40.532,40.532,0,0,1,3.845-2.146q1.6-.792,3.257-1.485c1.556-.655,3.141-1.239,4.728-1.809a19.034,19.034,0,0,0,3.1-1.315,7.769,7.769,0,0,0,3.98-7.311c-.431-3.691.49-7.537.429-11.254a11.152,11.152,0,0,0-.387-3.211,1.718,1.718,0,0,1,.215.181c.659.615.818,1.592,1.447,2.294.49.552,1.236.9,1.532,1.578.226.516.194,1.212.666,1.509.134.085.293.121.427.2a1.429,1.429,0,0,1,.4.429,4.812,4.812,0,0,1,1.075,2.352c.024.346-.009.745.244.979.072.067.165.116.2.206.08.181-.13.373-.166.574-.052.279.223.49.393.724a1.138,1.138,0,0,1,0,1.341c-1.484,1.927-1.751,4.523-3.049,6.584-.449.711-.948,1.384-1.382,2.1a27.074,27.074,0,0,0-2.665,7.253A4.007,4.007,0,0,0,244.4,316.4a6.151,6.151,0,0,1-1.239,2.289,5.766,5.766,0,0,0-.409.512,1,1,0,0,0-.4-.3,14.333,14.333,0,0,0-.362,3.166,2.259,2.259,0,0,0,.666,1.909,2.362,2.362,0,0,0,.74.306l1.241.362a1.3,1.3,0,0,0,.686.067c.147-.042.277-.132.427-.161a1.047,1.047,0,0,1,.481.063l1.073.313a7.089,7.089,0,0,1,1.06.375c.306.147.588.337.888.5a10.733,10.733,0,0,0,1.551.637l1.849.637a6.73,6.73,0,0,0,1.6.416c.38.033.765,0,1.14.065.286.049.563.152.85.181a2.229,2.229,0,0,0,1.339-.4,1.2,1.2,0,0,0,.387-.349,1.382,1.382,0,0,0-.226-1.409,5.574,5.574,0,0,0-1.912-1.99c-.327-.181-.682-.315-1.02-.481-.962-.47-1.688-1.256-2.6-1.793a.617.617,0,0,0-.78.052,5.266,5.266,0,0,1-1.99-1.768,3.979,3.979,0,0,1-.362-1.221c.425.1.854.181,1.286.251A33.094,33.094,0,0,1,253.214,310.662ZM235.833,233.5c-.036.2-.076.407-.119.61a10.233,10.233,0,0,1-2.063,4.867,4.523,4.523,0,0,1-1.335.881l-.132.065A29.025,29.025,0,0,1,235.833,233.5Z" transform="translate(-182.809 -192.93)" fill="url(#linear-gradient)"/>
    <path id="Path_224" data-name="Path 224" d="M388.554,224.867a5.4,5.4,0,0,1,.584-1.838,4.2,4.2,0,0,1,.856-.9,5.706,5.706,0,0,1,1.835-1.147,2.292,2.292,0,0,1,2.079.241,2.767,2.767,0,0,1,.914,1.912,4.708,4.708,0,0,1-.49,2.895,11.924,11.924,0,0,1-2.352,2.414,9.338,9.338,0,0,0-1.532,1.911,5.446,5.446,0,0,1-.7,1.02,1.326,1.326,0,0,1-1.109.443,1.956,1.956,0,0,1-.9-.53c-.335-.293-1.236-.816-1.266-1.281-.022-.376.682-1.23.854-1.583A17.824,17.824,0,0,0,388.554,224.867Z" transform="translate(-333.779 -194.374)" fill="#fbbebe"/>
    <path id="Path_225" data-name="Path 225" d="M388.554,224.867a5.4,5.4,0,0,1,.584-1.838,4.2,4.2,0,0,1,.856-.9,5.706,5.706,0,0,1,1.835-1.147,2.292,2.292,0,0,1,2.079.241,2.767,2.767,0,0,1,.914,1.912,4.708,4.708,0,0,1-.49,2.895,11.924,11.924,0,0,1-2.352,2.414,9.338,9.338,0,0,0-1.532,1.911,5.446,5.446,0,0,1-.7,1.02,1.326,1.326,0,0,1-1.109.443,1.956,1.956,0,0,1-.9-.53c-.335-.293-1.236-.816-1.266-1.281-.022-.376.682-1.23.854-1.583A17.824,17.824,0,0,0,388.554,224.867Z" transform="translate(-333.779 -194.374)" opacity="0.1"/>
    <path id="Path_226" data-name="Path 226" d="M293,283.972a16.231,16.231,0,0,1,4.445-.543c2.5.036,5.079.642,7.461-.125a12.94,12.94,0,0,0,1.789-.776,4.542,4.542,0,0,0,1.335-.876,10.2,10.2,0,0,0,2.066-4.834,32.259,32.259,0,0,0,.563-5.145,3.927,3.927,0,0,0,1.95.514,1.415,1.415,0,0,0,1.362-1.266,20.7,20.7,0,0,0,.089,4.793c.1.626.268,1.243.324,1.876.2,2.287-1,4.572-.568,6.828a1.655,1.655,0,0,1-.778,1.764,8.5,8.5,0,0,1-2.016.543c-1.326.338-2.484,1.181-3.816,1.5-.621.147-1.266.181-1.878.338-.879.232-1.677.735-2.573.894-.671.119-1.362.038-2.041.1-.59.049-1.169.2-1.76.219a5.08,5.08,0,0,1-3.78-1.871A15.883,15.883,0,0,1,293,283.972Z" transform="translate(-257.222 -235.396)" fill="#ffb900"/>
    <path id="Path_227" data-name="Path 227" d="M293,283.972a16.231,16.231,0,0,1,4.445-.543c2.5.036,5.079.642,7.461-.125a12.94,12.94,0,0,0,1.789-.776,4.542,4.542,0,0,0,1.335-.876,10.2,10.2,0,0,0,2.066-4.834,32.259,32.259,0,0,0,.563-5.145,3.927,3.927,0,0,0,1.95.514,1.415,1.415,0,0,0,1.362-1.266,20.7,20.7,0,0,0,.089,4.793c.1.626.268,1.243.324,1.876.2,2.287-1,4.572-.568,6.828a1.655,1.655,0,0,1-.778,1.764,8.5,8.5,0,0,1-2.016.543c-1.326.338-2.484,1.181-3.816,1.5-.621.147-1.266.181-1.878.338-.879.232-1.677.735-2.573.894-.671.119-1.362.038-2.041.1-.59.049-1.169.2-1.76.219a5.08,5.08,0,0,1-3.78-1.871A15.883,15.883,0,0,1,293,283.972Z" transform="translate(-257.222 -235.396)" opacity="0.1"/>
    <path id="Path_228" data-name="Path 228" d="M582.321,341.426a12.455,12.455,0,1,1-12.455,12.454,12.455,12.455,0,0,1,12.455-12.454m0-3.076a15.531,15.531,0,1,0,15.531,15.53A15.531,15.531,0,0,0,582.321,338.35Z" transform="translate(-481.477 -290.626)" fill="#3f3d56"/>
    <rect id="Rectangle_112" data-name="Rectangle 112" width="3.64" height="3.832" transform="translate(98.544 44.091)" fill="#3f3d56"/>
    <rect id="Rectangle_113" data-name="Rectangle 113" width="3.64" height="3.832" transform="matrix(0.857, 0.515, -0.515, 0.857, 108.678, 45.645)" fill="#3f3d56"/>
    <rect id="Rectangle_114" data-name="Rectangle 114" width="3.64" height="3.832" transform="matrix(0.485, 0.875, -0.875, 0.485, 116.432, 51.92)" fill="#3f3d56"/>
    <rect id="Rectangle_115" data-name="Rectangle 115" width="3.64" height="3.832" transform="matrix(-0.53, 0.848, -0.848, -0.53, 118.313, 71.393)" fill="#3f3d56"/>
    <rect id="Rectangle_116" data-name="Rectangle 116" width="3.64" height="3.832" transform="matrix(-0.485, 0.875, -0.875, -0.485, 88.609, 53.777)" fill="#3f3d56"/>
    <rect id="Rectangle_117" data-name="Rectangle 117" width="3.64" height="3.832" transform="matrix(0.53, 0.848, -0.848, 0.53, 86.626, 69.361)" fill="#3f3d56"/>
    <rect id="Rectangle_118" data-name="Rectangle 118" width="3.64" height="3.832" transform="matrix(-0.857, 0.515, -0.515, -0.857, 94.983, 48.929)" fill="#3f3d56"/>
    <rect id="Rectangle_119" data-name="Rectangle 119" width="3.64" height="3.832" transform="translate(98.544 78.582)" fill="#3f3d56"/>
    <rect id="Rectangle_120" data-name="Rectangle 120" width="3.64" height="3.832" transform="matrix(0.857, -0.515, 0.515, 0.857, 106.705, 77.576)" fill="#3f3d56"/>
    <rect id="Rectangle_121" data-name="Rectangle 121" width="3.64" height="3.832" transform="matrix(-0.857, -0.515, 0.515, -0.857, 93.01, 80.86)" fill="#3f3d56"/>
    <rect id="Rectangle_122" data-name="Rectangle 122" width="4.407" height="3.257" transform="translate(81.3 61.72)" fill="#3f3d56"/>
    <rect id="Rectangle_123" data-name="Rectangle 123" width="4.407" height="3.257" transform="translate(120.387 64.977) rotate(180)" fill="#3f3d56"/>
    <path id="Path_229" data-name="Path 229" d="M742.24,217.516a12.455,12.455,0,1,1-12.455,12.454,12.455,12.455,0,0,1,12.455-12.454m0-3.076a15.531,15.531,0,1,0,15.531,15.53A15.531,15.531,0,0,0,742.24,214.44Z" transform="translate(-612.463 -189.135)" fill="#3f3d56"/>
    <rect id="Rectangle_124" data-name="Rectangle 124" width="3.64" height="3.832" transform="translate(127.478 21.674)" fill="#3f3d56"/>
    <rect id="Rectangle_125" data-name="Rectangle 125" width="3.64" height="3.832" transform="matrix(0.857, 0.515, -0.515, 0.857, 137.612, 23.226)" fill="#3f3d56"/>
    <rect id="Rectangle_126" data-name="Rectangle 126" width="3.64" height="3.832" transform="matrix(0.485, 0.875, -0.875, 0.485, 145.366, 29.501)" fill="#3f3d56"/>
    <rect id="Rectangle_127" data-name="Rectangle 127" width="3.64" height="3.832" transform="matrix(-0.53, 0.848, -0.848, -0.53, 147.246, 48.976)" fill="#3f3d56"/>
    <rect id="Rectangle_128" data-name="Rectangle 128" width="3.64" height="3.832" transform="matrix(-0.485, 0.875, -0.875, -0.485, 117.541, 31.36)" fill="#3f3d56"/>
    <rect id="Rectangle_129" data-name="Rectangle 129" width="3.64" height="3.832" transform="matrix(0.53, 0.848, -0.848, 0.53, 115.559, 46.944)" fill="#3f3d56"/>
    <rect id="Rectangle_130" data-name="Rectangle 130" width="3.64" height="3.832" transform="matrix(-0.857, 0.515, -0.515, -0.857, 123.916, 26.511)" fill="#3f3d56"/>
    <rect id="Rectangle_131" data-name="Rectangle 131" width="3.64" height="3.832" transform="translate(127.478 56.164)" fill="#3f3d56"/>
    <rect id="Rectangle_132" data-name="Rectangle 132" width="3.64" height="3.832" transform="matrix(0.857, -0.515, 0.515, 0.857, 135.638, 55.158)" fill="#3f3d56"/>
    <rect id="Rectangle_133" data-name="Rectangle 133" width="3.64" height="3.832" transform="matrix(-0.857, -0.515, 0.515, -0.857, 121.942, 58.441)" fill="#3f3d56"/>
    <rect id="Rectangle_134" data-name="Rectangle 134" width="4.407" height="3.257" transform="translate(110.232 39.302)" fill="#3f3d56"/>
    <rect id="Rectangle_135" data-name="Rectangle 135" width="4.407" height="3.257" transform="translate(149.323 42.558) rotate(180)" fill="#3f3d56"/>
    <path id="Path_230" data-name="Path 230" d="M421.156,212.2h.44a12.454,12.454,0,1,1-.423,24.9c-.146,0-.293,0-.441,0a12.454,12.454,0,1,1,.425-24.9m0-3.074h0a15.529,15.529,0,1,0-.532,31.054c.181,0,.362.007.543.007a15.529,15.529,0,1,0,.53-31.054c-.181,0-.362-.007-.543-.007Z" transform="translate(-349.253 -184.783)" fill="#3f3d56"/>
    <rect id="Rectangle_136" data-name="Rectangle 136" width="3.64" height="3.832" transform="translate(70.276 20.65) rotate(1.99)" fill="#3f3d56"/>
    <rect id="Rectangle_137" data-name="Rectangle 137" width="3.64" height="3.832" transform="matrix(0.839, 0.544, -0.544, 0.839, 80.348, 22.552)" fill="#3f3d56"/>
    <rect id="Rectangle_138" data-name="Rectangle 138" width="3.64" height="3.832" transform="translate(87.881 29.093) rotate(62.99)" fill="#3f3d56"/>
    <rect id="Rectangle_139" data-name="Rectangle 139" width="3.64" height="3.832" transform="translate(89.086 48.615) rotate(123.99)" fill="#3f3d56"/>
    <rect id="Rectangle_140" data-name="Rectangle 140" width="3.64" height="3.832" transform="matrix(-0.515, 0.857, -0.857, -0.515, 60.009, 29.981)" fill="#3f3d56"/>
    <rect id="Rectangle_141" data-name="Rectangle 141" width="3.653" height="3.845" transform="translate(57.233 45.773) rotate(60.113)" fill="#3f3d56"/>
    <rect id="Rectangle_142" data-name="Rectangle 142" width="3.64" height="3.832" transform="translate(66.552 25.355) rotate(150.99)" fill="#3f3d56"/>
    <rect id="Rectangle_143" data-name="Rectangle 143" width="3.64" height="3.832" transform="translate(69.079 55.118) rotate(1.99)" fill="#3f3d56"/>
    <rect id="Rectangle_144" data-name="Rectangle 144" width="3.64" height="3.832" transform="translate(77.272 54.398) rotate(-29.01)" fill="#3f3d56"/>
    <rect id="Rectangle_145" data-name="Rectangle 145" width="3.64" height="3.832" transform="matrix(-0.839, -0.544, 0.544, -0.839, 63.473, 57.201)" fill="#3f3d56"/>
    <rect id="Rectangle_146" data-name="Rectangle 146" width="4.407" height="3.257" transform="translate(52.431 37.668) rotate(1.99)" fill="#3f3d56"/>
    <rect id="Rectangle_147" data-name="Rectangle 147" width="4.407" height="3.257" transform="translate(91.386 42.274) rotate(-178.01)" fill="#3f3d56"/>
    <path id="Path_231" data-name="Path 231" d="M256.728,731.486a3.739,3.739,0,0,0-1.283.4,3.014,3.014,0,0,0-1.116,1.505,13.034,13.034,0,0,0-.749,4.7,10.115,10.115,0,0,0,.483,3.808,2.406,2.406,0,0,0,.639,1,2.273,2.273,0,0,0,.874.423,2.385,2.385,0,0,0,2.048-.253,3.269,3.269,0,0,0,.915-2.137,4.989,4.989,0,0,1,1.218-2.907c.583-.543,1.417-.814,1.84-1.487a3.179,3.179,0,0,0-.083-2.734c-.28-.771-.691-2.336-1.5-2.73S257.568,731.334,256.728,731.486Z" transform="translate(-224.93 -612.196)" fill="#fbbebe"/>
    <path id="Path_232" data-name="Path 232" d="M426.746,748.009a6.052,6.052,0,0,1-1.266,2.336c-.362.412-.805.914-.615,1.426a1.276,1.276,0,0,0,.337.451,17.262,17.262,0,0,0,10.045,4.319.346.346,0,0,0,.181,0c.109-.049.134-.181.148-.3a3.824,3.824,0,0,0,0-1.158,3.465,3.465,0,0,0-1.739-2.028,5.431,5.431,0,0,1-2.044-1.786c-.543-1.006-.309-2.316-.948-3.257a3.452,3.452,0,0,0-2.39-1.236c-.317-.049-.99-.4-1.266-.235S426.841,747.695,426.746,748.009Z" transform="translate(-365.191 -624.929)" fill="#fbbebe"/>
    <path id="Path_233" data-name="Path 233" d="M246.631,731.724a.362.362,0,0,0-.32-.362,1.157,1.157,0,0,0-.523.067,7.645,7.645,0,0,1-1.266.232,9.109,9.109,0,0,0-1.522.181,1.719,1.719,0,0,0-1.178.9,2.242,2.242,0,0,0-.13.849,12.962,12.962,0,0,0,.394,3.295.286.286,0,0,0,.134.212c.063.025.139,0,.2.029a.268.268,0,0,1,.118.147,7.27,7.27,0,0,1,.458,2.2q.181,1.663.458,3.315a3.631,3.631,0,0,0,.666,1.809,2.975,2.975,0,0,0,1.905.872,13.421,13.421,0,0,0,4.48-.409,1.307,1.307,0,0,0,.754-.338.843.843,0,0,0,.181-.6c-.034-.738-.713-1.266-1.328-1.672l-.847-.57a.44.44,0,0,1-.148-.134.478.478,0,0,1-.042-.271l.054-1.086a3.108,3.108,0,0,0-2.714,1.684c-.118.233-.228.507-.472.6a.624.624,0,0,1-.74-.447,1.947,1.947,0,0,1,.027-.955c.5-2.656.38-5.386.682-8.071a1.838,1.838,0,0,1,.27-.85C246.331,732.15,246.6,731.972,246.631,731.724Z" transform="translate(-215.195 -612.529)" fill="#3f3d56"/>
    <path id="Path_234" data-name="Path 234" d="M431.279,772.79c.125.206.318.362.434.575a.487.487,0,0,1-.094.646.636.636,0,0,1-.391.04,13.226,13.226,0,0,1-7.152-3.235,5.015,5.015,0,0,1-.876-.961c-.233-.362-.431-.787-.829-.935a14.145,14.145,0,0,0-.362,3.145,2.237,2.237,0,0,0,.666,1.9,2.382,2.382,0,0,0,.742.3l1.243.351a1.324,1.324,0,0,0,.688.067c.147-.04.277-.132.427-.159a1.055,1.055,0,0,1,.483.062l1.073.313a7.1,7.1,0,0,1,1.062.362c.306.145.59.335.888.5a10.639,10.639,0,0,0,1.554.631l1.889.655a6.671,6.671,0,0,0,1.607.413c.38.032.765,0,1.142.065.286.049.563.152.852.181a2.252,2.252,0,0,0,1.339-.4,1.209,1.209,0,0,0,.389-.346,1.366,1.366,0,0,0-.228-1.4,5.5,5.5,0,0,0-1.914-1.97c-.329-.181-.684-.315-1.022-.48-.962-.467-1.692-1.246-2.6-1.78C431.427,770.825,430.874,772.126,431.279,772.79Z" transform="translate(-362.891 -643.296)" fill="#3f3d56"/>
    <path id="Path_235" data-name="Path 235" d="M267.334,329.275a7.824,7.824,0,0,1-3.34,1.3,13.472,13.472,0,0,1-1.891.1,48.084,48.084,0,0,1-7.863-.657,9.635,9.635,0,0,0,2.471-3.846,6.318,6.318,0,0,0,.118-2.41,18.039,18.039,0,0,0-.735-3.034,21.027,21.027,0,0,0,3.324-.085c.63-.063,2.171-.637,2.714-.2.508.4.125,1.831.116,2.49V323a8.011,8.011,0,0,0,.635,2.906A5.529,5.529,0,0,0,267.334,329.275Z" transform="translate(-225.475 -275.825)" fill="#fbbebe"/>
    <path id="Path_236" data-name="Path 236" d="M270.642,322.88a6.636,6.636,0,0,1-5.428.832,18.041,18.041,0,0,0-.735-3.034,21.023,21.023,0,0,0,3.324-.085c.63-.063,2.171-.637,2.714-.2C271.035,320.794,270.651,322.221,270.642,322.88Z" transform="translate(-233.862 -275.784)" opacity="0.1"/>
    <circle id="Ellipse_295" data-name="Ellipse 295" cx="6.622" cy="6.622" r="6.622" transform="translate(26.533 34.623)" fill="#fbbebe"/>
    <path id="Path_237" data-name="Path 237" d="M278.642,378.426a3.076,3.076,0,0,1-1.493,2.658,5.9,5.9,0,0,1-1.628.57,32.136,32.136,0,0,1-9.242,1.142,5.091,5.091,0,0,1-1.961-.413,2.1,2.1,0,0,1-1.21-1.513,1.432,1.432,0,0,0-.1-.481,1.356,1.356,0,0,0-.46-.409,1.883,1.883,0,0,1-.7-1.869c-.378.168-.773-.212-.95-.586s-.317-.827-.7-.984a5.666,5.666,0,0,0-.83-.116c-.436-.112-.7-.543-1.01-.865a7.853,7.853,0,0,0-2.339-1.431,26.44,26.44,0,0,1-6.369-5.089,21.159,21.159,0,0,1-2.741-3.076c-.219-.32-.416-.65-.6-.988a27.779,27.779,0,0,1-1.527-3.494,4.018,4.018,0,0,1-.394-1.99c.009-.062.022-.123.036-.181a3.808,3.808,0,0,1,.6-1.214,5.068,5.068,0,0,1,2.714-2.231,7.546,7.546,0,0,1,3.49.313,8.9,8.9,0,0,0,1.185.181,11.049,11.049,0,0,0,3.685-.579l1.314-.362c.659-.181.988-.977,1.654-1.116a2.321,2.321,0,0,1,.892.045,12.3,12.3,0,0,1,3.9,1.276,6.425,6.425,0,0,1,.758.516,4.8,4.8,0,0,1,1.762,2.6c.271,1.145.016,2.368.291,3.514a7.787,7.787,0,0,0,1.35,2.569l3.233,4.617a28.685,28.685,0,0,0,2.379,3.1C275.375,374.431,278.6,375.858,278.642,378.426Z" transform="translate(-217.392 -303.674)" fill="#ffb900"/>
    <path id="Path_238" data-name="Path 238" d="M376.616,224.867a5.4,5.4,0,0,1,.583-1.838,4.2,4.2,0,0,1,.856-.9,5.726,5.726,0,0,1,1.835-1.147,2.292,2.292,0,0,1,2.079.241,2.767,2.767,0,0,1,.914,1.912,4.708,4.708,0,0,1-.49,2.895,11.923,11.923,0,0,1-2.352,2.414,9.409,9.409,0,0,0-1.532,1.911,5.446,5.446,0,0,1-.7,1.02,1.326,1.326,0,0,1-1.109.443,1.965,1.965,0,0,1-.9-.53c-.335-.293-1.238-.816-1.266-1.281-.022-.376.682-1.23.854-1.583A17.945,17.945,0,0,0,376.616,224.867Z" transform="translate(-323.999 -194.374)" fill="#fbbebe"/>
    <path id="Path_239" data-name="Path 239" d="M321.038,514.738c-.832,1.536-1.744,3.032-2.486,4.614-.432.924-.807,1.876-1.288,2.775-.525.981-1.171,1.892-1.719,2.862a32.861,32.861,0,0,0-2.86,7.917,15.769,15.769,0,0,1-5.638-1.99c-.118-.069-.23-.141-.338-.219a4.024,4.024,0,0,1-1.138-1.254,26.78,26.78,0,0,1,2.669-7.2c.436-.724.935-1.384,1.384-2.09,1.3-2.044,1.569-4.624,3.054-6.539a1.123,1.123,0,0,0,0-1.332c-.172-.223-.445-.434-.394-.709.038-.2.248-.382.166-.57-.038-.09-.13-.139-.2-.2-.253-.233-.221-.631-.242-.973a4.706,4.706,0,0,0-1.086-2.336,1.448,1.448,0,0,0-.4-.427c-.134-.081-.293-.118-.427-.2-.474-.3-.44-.988-.668-1.5-.3-.675-1.044-1.019-1.534-1.567-.624-.7-.783-1.668-1.447-2.278a1.806,1.806,0,0,0-.215-.181,11.155,11.155,0,0,1,.385,3.19c.063,3.689-.859,7.508-.427,11.174a7.7,7.7,0,0,1-3.989,7.262,19.2,19.2,0,0,1-3.1,1.308c-1.59.563-3.175,1.143-4.735,1.795q-1.654.684-3.257,1.475a41.134,41.134,0,0,0-3.852,2.131,14.888,14.888,0,0,0-4.149,3.416,3.732,3.732,0,0,1-2.68-1.475,10.227,10.227,0,0,1-1.467-2.779,7.714,7.714,0,0,1-.7-2.616.518.518,0,0,1,.315-.452l7.268-3.852,1.359-.724c2.976-1.579,6.059-3.039,9.035-4.617.2.06.362-.168.422-.362s.1-.443.289-.53c.094-.045.217-.043.288-.123a.344.344,0,0,0,.051-.241c-.1-1.447-1.134-2.763-.926-4.19a5.08,5.08,0,0,0,.266-1.809,7.892,7.892,0,0,0-.554-1.142c-.362-.878,0-1.934-.391-2.794a6.458,6.458,0,0,1-.525-1.78,12.09,12.09,0,0,0-1.111-3.528,6.431,6.431,0,0,0-1.022-1.547c-.219-.235-.465-.445-.673-.689a5.729,5.729,0,0,1-1.044-2.714,13.083,13.083,0,0,1-.145-5.3,7.521,7.521,0,0,0,.338-1.784c-.009-.8-.362-1.737.2-2.316a1.8,1.8,0,0,1,.814-.418,24.566,24.566,0,0,1,3.941-.724l6.07-.794a5.512,5.512,0,0,0,2.019-.526,4.061,4.061,0,0,0,1.7-2.171c1.066.778,1.464,2.227,2.314,3.231.414.49.926.887,1.38,1.337a15.486,15.486,0,0,1,1.522,1.876,33.026,33.026,0,0,1,3.438,5.44c.472,1.013.838,2.07,1.214,3.121,1.482,4.138,3.9,8.066,4.9,12.343a23.487,23.487,0,0,1,.984,3.059A5.844,5.844,0,0,1,321.038,514.738Z" transform="translate(-245.149 -407.541)" fill="#3f3d56"/>
    <path id="Path_240" data-name="Path 240" d="M337.984,472.377a1.863,1.863,0,0,0-.224.9c.136-.669,1.057-1.04,1.116-1.7.027-.306-.029-.291-.217-.13C338.373,471.688,338.248,472.115,337.984,472.377Z" transform="translate(-293.884 -399.545)" opacity="0.1"/>
    <path id="Path_241" data-name="Path 241" d="M351.957,487.4a1.38,1.38,0,0,0-.42.621,1.574,1.574,0,0,0-.085,1.086c.136-.063.181-.23.223-.374a2.614,2.614,0,0,1,.288-.641c.109-.181.61-.584.608-.774C352.565,487.026,352.091,487.3,351.957,487.4Z" transform="translate(-305.05 -412.535)" opacity="0.1"/>
    <path id="Path_242" data-name="Path 242" d="M261.85,356.053a6.829,6.829,0,0,1-1.4.93c-1.312.664-2.765,1.015-4.085,1.659a20.234,20.234,0,0,0-1.9,1.105l-3.926,2.488a4.21,4.21,0,0,0-.865.657c-.472.5-.47,1.388-.9,1.927a2.65,2.65,0,0,1-1.905.879,6.19,6.19,0,0,1-2.122-.362,11.022,11.022,0,0,1-1.212-.441,5.712,5.712,0,0,1-1.165-.666A3.324,3.324,0,0,1,241,362.058a4.288,4.288,0,0,1,.233-1.769,6.79,6.79,0,0,1,.418-1.073,4.309,4.309,0,0,1,.333-.564,6.21,6.21,0,0,1,4.027-2.171c.807-.157,1.628-.253,2.444-.391a8.9,8.9,0,0,0,1.185.181,11.049,11.049,0,0,0,3.685-.579l1.313-.362c.659-.181.988-.977,1.654-1.116a2.321,2.321,0,0,1,.892.045,12.3,12.3,0,0,1,3.9,1.275A6.425,6.425,0,0,1,261.85,356.053Z" transform="translate(-214.619 -303.6)" opacity="0.1"/>
    <path id="Path_243" data-name="Path 243" d="M265.047,267.35c-.168,1.6-1.52,2.777-2.352,4.161-.4.671-.68,1.408-1.04,2.1a20.84,20.84,0,0,1-1.375,2.189l-1.471,2.135a22.088,22.088,0,0,1-2.844,3.573c-1.927.328-3.542,1.759-5.37,2.453a27.519,27.519,0,0,1-4.59.93,6.265,6.265,0,0,0-4.026,2.171,5.683,5.683,0,0,0-.753,1.628,4.219,4.219,0,0,0-.232,1.768,3.356,3.356,0,0,0,1.37,2.171,7.578,7.578,0,0,0,2.377,1.107,6.233,6.233,0,0,0,2.122.362,2.582,2.582,0,0,0,1.907-.879c.449-.564.427-1.424.9-1.927a4.224,4.224,0,0,1,.867-.657l3.926-2.488a20.218,20.218,0,0,1,1.894-1.1c1.321-.646,2.774-1,4.085-1.659a4.865,4.865,0,0,0,2.8-3.208c.8-4.447,3.877-8.2,6.513-11.869-.087-.018-.06-.215-.092-.3a3.791,3.791,0,0,0-1.929-1.943A11.411,11.411,0,0,0,265.047,267.35Z" transform="translate(-214.614 -232.472)" fill="#ffb900"/>
    <path id="Path_244" data-name="Path 244" d="M218.985,253.594a2.453,2.453,0,0,0-.273-1.4,3.128,3.128,0,0,0-2.171-1.149q-1.192-.244-2.4-.42a5.408,5.408,0,0,0-1.981-.033,13.4,13.4,0,0,0-2.479,1.169,16.926,16.926,0,0,1-3.143.8,4.785,4.785,0,0,0-2.8,1.516,5.245,5.245,0,0,0-.854,2.294c-1.254,6.765.1,13.7.353,20.578.1,2.676-.022,5.536-1.551,7.734l4.453-.118a4.048,4.048,0,0,0,4.757-3.353,7.922,7.922,0,0,0,.568-2.29c.071-1.616-.847-3.2-.543-4.793a5.341,5.341,0,0,1,2.01-2.926,17.527,17.527,0,0,0,2.7-2.4,8.746,8.746,0,0,0,1.424-6.139,23.411,23.411,0,0,1-.217-3.827,4.825,4.825,0,0,1,1.01-2.681A3.741,3.741,0,0,0,218.985,253.594Z" transform="translate(-182.432 -218.684)" fill="#3f3d56"/>
    <path id="Path_245" data-name="Path 245" d="M218.67,254.65a3.075,3.075,0,0,0-2.135-1.14,2.1,2.1,0,0,1,1.057.832,2.439,2.439,0,0,1,.273,1.4,3.723,3.723,0,0,1-1.142,2.567,4.82,4.82,0,0,0-1.01,2.681,23.408,23.408,0,0,0,.217,3.827,8.754,8.754,0,0,1-1.422,6.139,17.8,17.8,0,0,1-2.7,2.4,5.335,5.335,0,0,0-2.012,2.926c-.3,1.59.619,3.177.543,4.793a7.926,7.926,0,0,1-.57,2.291,4.051,4.051,0,0,1-4.757,3.353l-3.154.083c-.071.116-.143.232-.221.342l4.453-.118a4.048,4.048,0,0,0,4.757-3.353,7.921,7.921,0,0,0,.568-2.29c.071-1.616-.847-3.2-.543-4.793a5.341,5.341,0,0,1,2.01-2.926,17.534,17.534,0,0,0,2.7-2.4,8.746,8.746,0,0,0,1.424-6.139,23.41,23.41,0,0,1-.217-3.827,4.825,4.825,0,0,1,1.01-2.681,3.693,3.693,0,0,0,1.142-2.567A2.453,2.453,0,0,0,218.67,254.65Z" transform="translate(-182.391 -221.136)" opacity="0.1"/>
    <path id="Path_246" data-name="Path 246" d="M438.52,585.24l-8.172,19.929a4.024,4.024,0,0,1-1.138-1.254,26.78,26.78,0,0,1,2.669-7.2c.436-.724.935-1.384,1.384-2.09,1.3-2.044,1.569-4.625,3.054-6.539a1.123,1.123,0,0,0,0-1.332c-.172-.223-.445-.434-.394-.709.038-.2.248-.382.166-.57-.038-.09-.13-.139-.2-.2-.253-.233-.221-.631-.242-.973a4.706,4.706,0,0,0-1.086-2.336,1.447,1.447,0,0,0-.4-.427c-.134-.081-.293-.118-.427-.2-.474-.3-.44-.988-.668-1.5-.3-.675-1.044-1.019-1.534-1.567-.624-.7-.783-1.668-1.447-2.278l-.056-.141.637-3.845Z" transform="translate(-368.788 -482.003)" opacity="0.1"/>
  </g>
</svg>
